<?xml version="1.0" encoding="utf-8"?>
<!-- Generator: Adobe Illustrator 23.1.0, SVG Export Plug-In . SVG Version: 6.00 Build 0)  -->
<svg version="1.1" xmlns="http://www.w3.org/2000/svg" xmlns:xlink="http://www.w3.org/1999/xlink" x="0px" y="0px"
	 viewBox="0 0 444 56" style="enable-background:new 0 0 444 56;" xml:space="preserve">
<style type="text/css">
	.st0{fill:#5B42E5;}
</style>
<g id="Landing_Page_4">
</g>
<g id="Landing_Page_3">
</g>
<g id="Landing_Page_2">
</g>
<g id="Landing_Page_1">
</g>
<g id="Icons_and_Form_Fields">
	<g>
		<path class="st0" d="M31.11,41.61c0-1.99-0.7-3.52-2.11-4.59s-3.94-2.19-7.59-3.38s-6.55-2.35-8.68-3.5
			c-5.81-3.14-8.72-7.37-8.72-12.69c0-2.77,0.78-5.23,2.34-7.4c1.56-2.17,3.8-3.86,6.71-5.08s6.19-1.83,9.83-1.83
			c3.66,0,6.91,0.66,9.77,1.99c2.86,1.32,5.08,3.19,6.66,5.61s2.37,5.16,2.37,8.23H31.15c0-2.34-0.74-4.17-2.21-5.47
			s-3.55-1.95-6.22-1.95c-2.58,0-4.58,0.54-6.01,1.63c-1.43,1.09-2.14,2.53-2.14,4.31c0,1.66,0.84,3.06,2.51,4.18
			c1.68,1.13,4.14,2.18,7.4,3.16c6,1.8,10.37,4.04,13.11,6.71s4.11,6,4.11,9.98c0,4.43-1.68,7.9-5.03,10.42
			c-3.35,2.52-7.86,3.78-13.54,3.78c-3.94,0-7.52-0.72-10.76-2.16s-5.7-3.42-7.4-5.92c-1.7-2.51-2.55-5.41-2.55-8.72h10.58
			c0,5.65,3.38,8.47,10.13,8.47c2.51,0,4.46-0.51,5.87-1.53S31.11,43.44,31.11,41.61z"/>
		<path class="st0" d="M57.69,17l0.32,4.25c2.69-3.3,6.34-4.96,10.93-4.96c4.9,0,8.26,1.93,10.09,5.8c2.67-3.87,6.48-5.8,11.43-5.8
			c4.13,0,7.19,1.2,9.21,3.6c2.02,2.4,3.02,6.02,3.02,10.85v24.29H92.5V30.78c0-2.16-0.42-3.73-1.27-4.73s-2.33-1.49-4.46-1.49
			c-3.05,0-5.16,1.45-6.33,4.36l0.04,26.12H70.31V30.82c0-2.2-0.43-3.8-1.3-4.78c-0.87-0.98-2.34-1.48-4.43-1.48
			c-2.88,0-4.97,1.2-6.26,3.59v26.89H48.16V17H57.69z"/>
		<path class="st0" d="M132.54,55.04c-0.47-0.91-0.81-2.05-1.02-3.41c-2.46,2.74-5.66,4.11-9.6,4.11c-3.73,0-6.81-1.08-9.26-3.23
			c-2.45-2.16-3.67-4.88-3.67-8.16c0-4.03,1.49-7.13,4.48-9.28s7.31-3.25,12.96-3.27h4.68v-2.18c0-1.76-0.45-3.16-1.35-4.22
			c-0.9-1.05-2.33-1.58-4.27-1.58c-1.71,0-3.05,0.41-4.03,1.23c-0.97,0.82-1.46,1.95-1.46,3.38h-10.16c0-2.2,0.68-4.24,2.04-6.12
			c1.36-1.88,3.28-3.35,5.77-4.41c2.48-1.07,5.27-1.6,8.37-1.6c4.69,0,8.41,1.18,11.16,3.53c2.75,2.36,4.13,5.67,4.13,9.93v16.49
			c0.02,3.61,0.53,6.34,1.51,8.19v0.6H132.54z M124.14,47.98c1.5,0,2.88-0.33,4.15-1s2.2-1.56,2.81-2.69v-6.54h-3.8
			c-5.09,0-7.79,1.76-8.12,5.27l-0.04,0.6c0,1.27,0.44,2.31,1.34,3.13C121.37,47.57,122.59,47.98,124.14,47.98z"/>
		<path class="st0" d="M170.47,26.53c-1.38-0.19-2.6-0.28-3.66-0.28c-3.84,0-6.36,1.3-7.56,3.9v24.89H149.1V17h9.6l0.28,4.54
			c2.04-3.49,4.86-5.24,8.47-5.24c1.13,0,2.18,0.15,3.16,0.46L170.47,26.53z"/>
		<path class="st0" d="M189.28,7.65V17h6.5v7.45h-6.5v18.98c0,1.41,0.27,2.41,0.81,3.02c0.54,0.61,1.57,0.91,3.09,0.91
			c1.13,0,2.12-0.08,2.99-0.25v7.7c-1.99,0.61-4.04,0.91-6.15,0.91c-7.13,0-10.76-3.6-10.9-10.79v-20.5h-5.55V17h5.55V7.65H189.28z"
			/>
		<path class="st0" d="M238.75,39.36l0.07,0.21c0.09,5.25-1.49,9.26-4.76,12.04s-7.58,4.17-12.92,4.17c-5.6,0-10.09-2.07-13.46-6.21
			s-5.06-9.57-5.06-16.29v-7.66c0-6.7,1.69-12.13,5.06-16.28s7.86-6.22,13.46-6.22c5.34,0,9.65,1.39,12.92,4.18
			s4.86,6.77,4.76,11.95l-0.07,0.21h-1.62c0-4.62-1.44-8.18-4.31-10.69c-2.87-2.51-6.77-3.76-11.69-3.76
			c-4.99,0-9.01,1.89-12.06,5.66c-3.05,3.77-4.57,8.73-4.57,14.87v7.73c0,6.21,1.52,11.2,4.57,14.96c3.05,3.76,7.07,5.64,12.06,5.64
			c4.92,0,8.82-1.21,11.69-3.62c2.87-2.41,4.31-6.05,4.31-10.9H238.75z"/>
		<path class="st0" d="M247.25,35.28c0-5.58,1.54-10.14,4.62-13.68c3.08-3.54,7.08-5.31,12.01-5.31c4.94,0,8.96,1.77,12.04,5.31
			c3.08,3.54,4.62,8.1,4.62,13.68v1.48c0,5.6-1.54,10.17-4.62,13.71c-3.08,3.54-7.07,5.31-11.97,5.31c-4.95,0-8.96-1.77-12.06-5.31
			s-4.64-8.11-4.64-13.71V35.28z M249.15,36.76c0,4.78,1.34,8.83,4.01,12.15s6.27,4.97,10.79,4.97c4.45,0,8.02-1.66,10.69-4.99
			s4.01-7.37,4.01-12.13v-1.48c0-4.66-1.35-8.68-4.04-12.04c-2.7-3.36-6.27-5.04-10.72-5.04c-4.48,0-8.05,1.68-10.72,5.04
			s-4.01,7.38-4.01,12.04V36.76z"/>
		<path class="st0" d="M291.27,17l0.25,7.66c1.17-2.65,2.86-4.71,5.06-6.17c2.2-1.46,4.91-2.2,8.12-2.2c4.15,0,7.26,1.31,9.33,3.92
			s3.11,6.76,3.11,12.43v22.39h-1.9V32.58c0-5.27-0.94-8.99-2.83-11.14c-1.89-2.16-4.45-3.23-7.68-3.23c-3.98,0-7.03,1.16-9.14,3.48
			s-3.46,5.31-4.04,8.96v24.4h-1.9V35.57h-0.11c0-0.45,0.01-0.9,0.02-1.35c0.01-0.46,0.04-0.92,0.09-1.39V17H291.27z"/>
		<path class="st0" d="M333,6.74V17h9.35v1.93H333v26.3c0,3.12,0.53,5.34,1.58,6.66s2.45,1.99,4.18,1.99c0.63,0,1.2-0.02,1.69-0.07
			s1.17-0.13,2.04-0.25l0.35,1.72c-0.59,0.19-1.2,0.32-1.83,0.39s-1.35,0.11-2.14,0.11c-2.55,0-4.49-0.83-5.82-2.5
			c-1.32-1.66-1.99-4.35-1.99-8.05v-26.3h-7.03V17h7.03V6.74H333z"/>
		<path class="st0" d="M364.64,55.78c-4.48,0-8.26-1.73-11.34-5.2c-3.08-3.47-4.62-7.84-4.62-13.11v-2.25
			c0-5.51,1.53-10.04,4.59-13.59s6.91-5.33,11.55-5.33c4.22,0,7.58,1.39,10.09,4.17c2.51,2.78,3.76,6.57,3.76,11.37v2.92h-28.09
			v0.46v2.25c0,4.64,1.31,8.54,3.94,11.69c2.62,3.15,6,4.73,10.13,4.73c2.27,0,4.46-0.42,6.56-1.27c2.1-0.84,3.8-1.97,5.12-3.38
			l1.02,1.48c-1.34,1.48-3.06,2.69-5.17,3.64S367.55,55.78,364.64,55.78z M364.82,18.2c-3.94,0-7.17,1.37-9.69,4.1
			c-2.52,2.73-3.94,6.18-4.27,10.35l0.11,0.21h25.8V31.7c0-3.91-1.07-7.14-3.2-9.69C371.44,19.47,368.52,18.2,364.82,18.2z"/>
		<path class="st0" d="M389.46,17l0.25,7.66c1.17-2.65,2.86-4.71,5.06-6.17c2.2-1.46,4.91-2.2,8.12-2.2c4.15,0,7.26,1.31,9.33,3.92
			s3.11,6.76,3.11,12.43v22.39h-1.9V32.58c0-5.27-0.94-8.99-2.83-11.14c-1.89-2.16-4.45-3.23-7.68-3.23c-3.98,0-7.03,1.16-9.14,3.48
			s-3.46,5.31-4.04,8.96v24.4h-1.9V35.57h-0.11c0-0.45,0.01-0.9,0.02-1.35c0.01-0.46,0.04-0.92,0.09-1.39V17H389.46z"/>
		<path class="st0" d="M431.19,6.74V17h9.35v1.93h-9.35v26.3c0,3.12,0.53,5.34,1.58,6.66s2.45,1.99,4.18,1.99
			c0.63,0,1.2-0.02,1.69-0.07s1.17-0.13,2.04-0.25l0.35,1.72c-0.59,0.19-1.2,0.32-1.83,0.39s-1.35,0.11-2.14,0.11
			c-2.55,0-4.49-0.83-5.82-2.5c-1.32-1.66-1.99-4.35-1.99-8.05v-26.3h-7.03V17h7.03V6.74H431.19z"/>
	</g>
</g>
</svg>
